<?xml version="1.0" encoding="UTF-8" standalone="no" ?>
<!DOCTYPE svg PUBLIC "-//W3C//DTD SVG 1.1//EN" "http://www.w3.org/Graphics/SVG/1.1/DTD/svg11.dtd">
<svg xmlns="http://www.w3.org/2000/svg" xmlns:xlink="http://www.w3.org/1999/xlink" version="1.1" width="6000" height="6000" viewBox="0 0 6000 6000" xml:space="preserve">
<desc>Created with Fabric.js 5.2.4</desc>
<defs>
</defs>
<rect x="0" y="0" width="100%" height="100%" fill="transparent"></rect>
<g transform="matrix(0 0 0 0 0 0)" id="bf7bb308-bf9f-4d13-b283-c6b7dcc5d0b7"  >
</g>
<g transform="matrix(1 0 0 1 3000 3000)" id="cebc02af-c092-4e4b-8390-69b6e8b400b2"  >
<rect style="stroke: none; stroke-width: 1; stroke-dasharray: none; stroke-linecap: butt; stroke-dashoffset: 0; stroke-linejoin: miter; stroke-miterlimit: 4; fill: rgb(255,255,255); fill-rule: nonzero; opacity: 1; visibility: hidden;" vector-effect="non-scaling-stroke"  x="-3000" y="-3000" rx="0" ry="0" width="6000" height="6000" />
</g>
<g transform="matrix(26.03 0 0 26.03 2947.06 3101.78)"  >
<path style="stroke: rgb(0,0,0); stroke-width: 0; stroke-dasharray: none; stroke-linecap: butt; stroke-dashoffset: 0; stroke-linejoin: miter; stroke-miterlimit: 4; fill: rgb(29,32,38); fill-rule: nonzero; opacity: 1;" vector-effect="non-scaling-stroke"  transform=" translate(-68.75, -10)" d="M 8.217 20 C 12.978000000000002 20 15.736 19.247 15.736 15.394 C 15.736 11.994 12.356000000000002 11.222000000000001 9.076 10.712 L 8.516 10.626999999999999 L 8.237 10.585999999999999 L 7.8870000000000005 10.532999999999998 C 5.187 10.127999999999998 4.707000000000001 9.744999999999997 4.707000000000001 9.061999999999998 C 4.707000000000001 8.583999999999998 5.197000000000001 7.730999999999998 7.550000000000001 7.730999999999998 C 10.005 7.730999999999998 11.043000000000001 8.377999999999998 11.043000000000001 9.600999999999999 L 11.043000000000001 9.735 L 15.324000000000002 9.735 L 15.324000000000002 9.602 C 15.324000000000002 7.213000000000001 13.974000000000002 4.364 7.550000000000002 4.364 C 1.5980000000000016 4.364 0.349000000000002 6.948 0.349000000000002 9.116 C 0.349000000000002 12.213 3.112000000000002 13.202 7.572000000000002 13.791 C 7.782000000000002 13.819 8.005000000000003 13.845 8.231000000000002 13.872 C 9.900000000000002 14.068999999999999 11.403000000000002 14.292 11.403000000000002 15.457 C 11.403000000000002 16.467000000000002 9.788000000000002 16.679000000000002 8.105000000000002 16.679000000000002 C 5.308000000000002 16.679000000000002 4.321000000000002 16.086000000000002 4.321000000000002 14.759000000000002 L 4.321000000000002 14.625000000000002 L 0.002 14.625000000000002 L 0 14.926 L 0 15.243 C 0.008 16.033 0.118 17.156 1.057 18.105 C 2.303 19.362 4.712 20 8.217 20 Z M 21.427 20 L 21.427 12.51 C 21.427 10.405999999999999 21.974 8.087 25.603 8.087 C 29.518 8.087 29.381 10.864 29.371000000000002 12.129 L 29.371000000000002 20 L 33.551 20 L 33.551 12.232 C 33.551 9.968 33.375 4.465999999999999 26.819000000000003 4.465999999999999 C 24.041000000000004 4.465999999999999 22.627000000000002 5.376999999999999 21.624000000000002 6.745999999999999 L 21.427000000000003 6.745999999999999 L 21.427000000000003 4.467 L 17.22 4.467 L 17.22 20 L 21.427 20 Z M 43.385999999999996 20 C 48.48 20 51.172999999999995 17.93 51.602999999999994 14.594999999999999 L 47.53 14.594999999999999 C 47.144 15.614999999999998 45.9 16.314999999999998 43.387 16.314999999999998 C 40.666 16.314999999999998 39.425 15.284999999999998 39.137 13.208999999999998 L 51.664 13.208999999999998 C 51.904 11.078999999999997 51.635 7.791999999999998 48.638000000000005 5.7689999999999975 L 48.638000000000005 5.773999999999997 C 47.32600000000001 4.858999999999997 45.58200000000001 4.3089999999999975 43.38700000000001 4.3089999999999975 C 38.147000000000006 4.3089999999999975 35.05100000000001 7.080999999999998 35.05100000000001 12.153999999999996 C 35.05100000000001 17.323999999999998 38.07100000000001 19.999999999999996 43.38700000000001 19.999999999999996 Z M 47.485 10.426 L 39.297 10.426 C 39.782999999999994 8.852 41.061 7.995 43.385999999999996 7.995 C 46.379999999999995 7.995 47.141 9.262 47.485 10.426 Z M 70.499 20 L 70.499 4.457 L 66.29 4.457 L 66.29 6.74 L 66.114 6.74 C 65.061 5.363 63.30500000000001 4.457000000000001 60.437000000000005 4.457000000000001 C 54.004000000000005 4.457000000000001 53.212 9.75 53.184000000000005 12.092 L 53.184000000000005 12.229000000000001 C 53.184000000000005 14.321000000000002 53.916000000000004 20 60.425000000000004 20 C 63.339000000000006 20 65.10900000000001 19.182 66.159 17.831 L 66.29 17.831 L 66.29 20 L 70.5 20 Z M 61.644999999999996 16.377 C 57.648999999999994 16.377 57.19799999999999 13.344999999999999 57.19799999999999 12.229 C 57.19799999999999 11.018999999999998 57.623999999999995 8.081 61.65299999999999 8.081 C 65.28399999999999 8.081 66.02699999999999 10.125 66.02699999999999 12.229 C 66.02699999999999 14.578999999999999 65.28499999999998 16.377 61.64499999999999 16.377 Z M 88.826 20 L 82.297 10.955 L 88.88499999999999 4.467 L 83.05799999999999 4.467 L 76.222 11.222999999999999 L 76.222 0 L 72.035 0 L 72.035 19.954 L 76.222 19.954 L 76.222 16.94 L 79.24199999999999 13.964000000000002 L 83.6 20 L 88.826 20 Z M 98.726 20 C 103.82 20 106.512 17.93 106.943 14.594999999999999 L 102.869 14.594999999999999 C 102.482 15.614999999999998 101.239 16.314999999999998 98.726 16.314999999999998 C 96.005 16.314999999999998 94.764 15.284999999999998 94.476 13.208999999999998 L 107.003 13.208999999999998 C 107.243 11.078999999999997 106.974 7.791999999999998 103.977 5.7689999999999975 L 103.977 5.773999999999997 C 102.665 4.858999999999997 100.92 4.3089999999999975 98.726 4.3089999999999975 C 93.486 4.3089999999999975 90.39 7.080999999999998 90.39 12.153999999999996 C 90.39 17.323999999999998 93.41 19.999999999999996 98.726 19.999999999999996 Z M 102.824 10.426 L 94.637 10.426 C 95.122 8.852 96.4 7.995 98.726 7.995 C 101.72 7.995 102.481 9.262 102.824 10.426 Z M 112.76 20 L 112.76 13.030000000000001 C 112.76 10.927000000000001 113.691 8.488000000000001 116.81 8.488000000000001 C 118.14 8.488000000000001 119.203 8.724000000000002 119.595 8.834000000000001 L 120.265 4.858000000000001 C 119.537 4.698000000000001 118.639 4.466000000000001 117.508 4.466000000000001 C 114.84299999999999 4.466000000000001 113.886 5.260000000000002 113.02199999999999 6.748000000000001 L 112.75999999999999 6.748000000000001 L 112.75999999999999 4.466 L 108.55 4.466 L 108.55 20 L 112.75999999999999 20 Z M 129.981 20 C 134.742 20 137.5 19.247 137.5 15.394 C 137.5 11.994 134.12 11.222000000000001 130.84 10.712 L 130.28 10.626999999999999 L 130.001 10.585999999999999 L 129.65200000000002 10.532999999999998 C 126.95100000000002 10.127999999999998 126.47100000000002 9.744999999999997 126.47100000000002 9.061999999999998 C 126.47100000000002 8.583999999999998 126.96100000000001 7.730999999999998 129.31400000000002 7.730999999999998 C 131.76900000000003 7.730999999999998 132.80700000000002 8.377999999999998 132.80700000000002 9.600999999999999 L 132.80700000000002 9.735 L 137.08900000000003 9.735 L 137.08900000000003 9.602 C 137.08900000000003 7.213000000000001 135.73900000000003 4.364 129.31400000000002 4.364 C 123.36200000000002 4.364 122.11300000000003 6.948 122.11300000000003 9.116 C 122.11300000000003 12.213 124.87600000000003 13.202 129.33700000000002 13.791 C 129.54700000000003 13.819 129.769 13.845 129.995 13.872 C 131.66400000000002 14.068999999999999 133.167 14.292 133.167 15.457 C 133.167 16.467000000000002 131.552 16.679000000000002 129.869 16.679000000000002 C 127.073 16.679000000000002 126.085 16.086000000000002 126.085 14.759000000000002 L 126.085 14.625000000000002 L 121.76599999999999 14.625000000000002 L 121.76499999999999 14.926000000000002 L 121.76499999999999 15.243000000000002 C 121.77299999999998 16.033 121.88199999999999 17.156000000000002 122.82099999999998 18.105000000000004 C 124.06699999999998 19.362000000000005 126.47599999999998 20.000000000000004 129.981 20.000000000000004 Z" stroke-linecap="round" />
</g>
<g transform="matrix(5.56 0 0 5.56 2916.05 2406.43)" style="" id="c88fd5f6-ab17-40fb-9199-9af168cd1925"  >
		<text xml:space="preserve" font-family="Lato" font-size="200" font-style="normal" font-weight="400" style="stroke: none; stroke-width: 1; stroke-dasharray: none; stroke-linecap: butt; stroke-dashoffset: 0; stroke-linejoin: miter; stroke-miterlimit: 4; fill: rgb(0,0,0); fill-rule: nonzero; opacity: 1; white-space: pre;" ><tspan x="-227.2" y="62.83" >saste</tspan></text>
</g>
</svg>